<?xml version="1.0" encoding="utf-8" standalone="no"?>
<!DOCTYPE svg PUBLIC "-//W3C//DTD SVG 1.1//EN" "http://www.w3.org/Graphics/SVG/1.1/DTD/svg11.dtd">
<svg width="3000px" height="3000px" version="1.1" xmlns="http://www.w3.org/2000/svg" xmlns:xlink="http://www.w3.org/1999/xlink">
<g id="ideograms">
<path d="M1500.000,170.000 A1330.000,1330.000 40.000 0,1 1814.168,2792.361 L1818.893,2811.795 A1350.000,1350.000 0.000 0,0 1500.000,150.000 Z" style="stroke-linecap:round;fill:rgb(153,102,0);"/>
<path d="M1773.824,2801.507 A1330.000,1330.000 40.000 1,1 1458.637,170.643 L1458.015,150.653 A1350.000,1350.000 0.000 1,0 1777.942,2821.078 Z" style="stroke-linecap:round;fill:rgb(102,102,0);"/>
</g>
<g id="track_0">
<path d="M 2574.0,2165.5 L 2526.4,2136.7 2477.8,2108.7 2428.1,2081.8 2377.5,2055.9 2326.0,2031.3 2273.8,2008.1 2220.8,1986.3 2167.2,1966.1 2113.0,1947.6 2058.3,1930.8 2003.1,1915.9 1947.6,1902.9 1891.7,1891.9 1835.6,1882.9 1779.2,1875.9 1722.8,1871.1 1666.3,1868.4 1609.7,1867.8 1553.2,1869.5 1496.9,1873.3 1440.7,1879.3 1384.8,1887.4 1329.1,1897.7 1273.8,1910.0 1218.9,1924.5 1164.5,1941.0 1110.6,1959.4 1057.3,1979.8 1004.7,2001.9 952.7,2025.9 901.5,2051.5 851.1,2078.7 801.5,2107.4 752.9,2137.5 705.2,2168.8 658.5,2201.2 612.9,2234.6 568.4,2268.8 525.1,2303.8  " style="stroke-opacity: 0.333333; stroke-width: 10.0; stroke: rgb(0,0,0); fill: none" />
</g>
</svg>
