<?xml version="1.0" encoding="utf-8" standalone="no"?>
<!DOCTYPE svg PUBLIC "-//W3C//DTD SVG 1.1//EN" "http://www.w3.org/Graphics/SVG/1.1/DTD/svg11.dtd">
<svg width="3000px" height="3000px" version="1.1" xmlns="http://www.w3.org/2000/svg" xmlns:xlink="http://www.w3.org/1999/xlink">
<g id="ideograms">
<path d="M1500.000,790.000 A710.000,710.000 40.000 0,1 2168.209,1260.008 L2205.855,1246.487 A750.000,750.000 0.000 0,0 1500.000,750.000 Z" style="stroke-linecap:round;fill:rgb(251,106,74);" />
<path d="M2175.250,1280.598 A710.000,710.000 40.000 0,1 1934.734,2061.343 L1959.226,2092.968 A750.000,750.000 0.000 0,0 2213.292,1268.237 Z" style="stroke-linecap:round;fill:rgb(116,196,118);" />
<path d="M1917.328,2074.402 A710.000,710.000 40.000 0,1 1100.471,2086.921 L1077.962,2119.987 A750.000,750.000 0.000 0,0 1940.839,2106.763 Z" style="stroke-linecap:round;fill:rgb(107,174,214);" />
<path d="M1082.672,2074.402 A710.000,710.000 40.000 0,1 818.343,1301.394 L779.940,1290.205 A750.000,750.000 0.000 0,0 1059.161,2106.763 Z" style="stroke-linecap:round;fill:rgb(255,244,80);" />
<path d="M824.750,1280.598 A710.000,710.000 40.000 0,1 1478.242,790.333 L1477.016,750.352 A750.000,750.000 0.000 0,0 786.708,1268.237 Z" style="stroke-linecap:round;fill:rgb(158,154,200);" />
</g>
<g id="track_0">
<path d="M 1045.529,973.128 A 695.800,695.800 0.00 0,1 1121.3,916.3 L 1121.3,916.3 1135.2,938.6 1148.4,961.6 1160.8,985.3 1172.4,1009.5 1183.1,1034.3 1192.8,1059.4 1201.5,1085.0 1209.1,1110.8 1215.6,1136.9 1220.9,1163.2 1224.9,1189.6 1227.8,1216.0 1229.3,1242.4 1229.6,1268.7 1228.6,1294.9 1226.2,1321.0 1222.6,1346.8 1217.6,1372.3 1211.2,1397.5 1203.6,1422.3 1194.7,1446.7 1184.4,1470.6 1173.0,1494.0 1160.2,1516.8 1146.3,1539.1 1131.3,1560.7 1115.1,1581.6 1097.9,1601.8 1079.7,1621.3 1060.6,1640.1 1040.5,1658.0 1019.7,1675.1 998.2,1691.3 976.0,1706.7 953.2,1721.1 930.0,1734.6 906.4,1747.2 882.5,1758.8 858.5,1769.4  A 695.800,695.800 0.00 0,1 827.8,1679.8 L 827.8,1679.8 852.3,1672.8 876.7,1664.9 900.9,1656.2 924.7,1646.6 948.0,1636.2 970.7,1624.9 992.6,1612.8 1013.8,1599.8 1034.1,1586.1 1053.5,1571.6 1071.7,1556.4 1088.9,1540.4 1104.8,1523.7 1119.6,1506.4 1133.0,1488.4 1145.1,1469.8 1155.8,1450.6 1165.0,1430.8 1172.9,1410.6 1179.3,1389.8 1184.2,1368.7 1187.6,1347.1 1189.6,1325.2 1190.1,1303.1 1189.1,1280.6 1186.7,1258.0 1182.9,1235.2 1177.7,1212.4 1171.2,1189.5 1163.3,1166.7 1154.3,1143.9 1144.0,1121.3 1132.7,1098.9 1120.3,1076.8 1106.9,1055.1 1092.6,1033.8 1077.6,1012.9 1061.9,992.7 1045.5,973.1  Z" style="stroke-width: 0.0;  fill: rgb(0,0,0); opacity: 0.167;" />
</g>
</svg>
